<svg version="1.1" xmlns="http://www.w3.org/2000/svg" viewBox="0 0 561.1584877565965 498.1451960545601" width="561.1584877565965" height="498.1451960545601">
  <!-- svg-source:excalidraw -->
  
  <defs>
    <style class="style-fonts">
      @font-face {
        font-family: "Virgil";
        src: url("https://excalidraw.com/Virgil.woff2");
      }
      @font-face {
        font-family: "Cascadia";
        src: url("https://excalidraw.com/Cascadia.woff2");
      }
    </style>
  </defs>
  <g stroke-linecap="round" transform="translate(10.148829337562347 10.496723708079571) rotate(0 9.166666666666515 238.33333333333326)"><path d="M0 0 L18.33 0 L18.33 476.67 L0 476.67" stroke="none" stroke-width="0" fill="#c0c0c0"></path><path d="M0 0 C5.42 0, 10.84 0, 18.33 0 M0 0 C5.75 0, 11.5 0, 18.33 0 M18.33 0 C18.33 162.74, 18.33 325.48, 18.33 476.67 M18.33 0 C18.33 104.32, 18.33 208.65, 18.33 476.67 M18.33 476.67 C12.03 476.67, 5.74 476.67, 0 476.67 M18.33 476.67 C13.08 476.67, 7.83 476.67, 0 476.67 M0 476.67 C0 314.1, 0 151.53, 0 0 M0 476.67 C0 286.75, 0 96.83, 0 0" stroke="#c0c0c0" stroke-width="1" fill="none"></path></g><g stroke-linecap="round" transform="translate(10 10) rotate(0 96.79481911485755 21.304939193717473)"><path d="M0 0 L193.59 0 L193.59 42.61 L0 42.61" stroke="none" stroke-width="0" fill="#c0c0c0"></path><path d="M0 0 C40.99 0, 81.98 0, 193.59 0 M0 0 C55.82 0, 111.64 0, 193.59 0 M193.59 0 C193.59 15.85, 193.59 31.71, 193.59 42.61 M193.59 0 C193.59 13.83, 193.59 27.67, 193.59 42.61 M193.59 42.61 C146.6 42.61, 99.61 42.61, 0 42.61 M193.59 42.61 C117.97 42.61, 42.34 42.61, 0 42.61 M0 42.61 C0 27.34, 0 12.07, 0 0 M0 42.61 C0 32.57, 0 22.52, 0 0" stroke="#c0c0c0" stroke-width="1" fill="none"></path></g><g stroke-linecap="round" transform="translate(10.333572785280921 467.06209501371995) rotate(0 97.29332649313346 10.096410874209596)"><path d="M0 0 L194.59 0 L194.59 20.19 L0 20.19" stroke="none" stroke-width="0" fill="#c0c0c0"></path><path d="M0 0 C41.66 0, 83.32 0, 194.59 0 M0 0 C49.95 0, 99.9 0, 194.59 0 M194.59 0 C194.59 5.18, 194.59 10.36, 194.59 20.19 M194.59 0 C194.59 7.62, 194.59 15.23, 194.59 20.19 M194.59 20.19 C119.27 20.19, 43.95 20.19, 0 20.19 M194.59 20.19 C129.2 20.19, 63.81 20.19, 0 20.19 M0 20.19 C0 14.32, 0 8.45, 0 0 M0 20.19 C0 15.95, 0 11.7, 0 0" stroke="#c0c0c0" stroke-width="1" fill="none"></path></g><g stroke-linecap="round" transform="translate(531.9960427622282 10.457859952552099) rotate(179.8367897045279 9.166666666666515 238.33333333333326)"><path d="M0 0 L18.33 0 L18.33 476.67 L0 476.67" stroke="none" stroke-width="0" fill="#c0c0c0"></path><path d="M0 0 C6.52 0, 13.04 0, 18.33 0 M0 0 C7.21 0, 14.42 0, 18.33 0 M18.33 0 C18.33 143.33, 18.33 286.65, 18.33 476.67 M18.33 0 C18.33 177.14, 18.33 354.28, 18.33 476.67 M18.33 476.67 C12.34 476.67, 6.34 476.67, 0 476.67 M18.33 476.67 C14.24 476.67, 10.14 476.67, 0 476.67 M0 476.67 C0 339.38, 0 202.09, 0 0 M0 476.67 C0 300.86, 0 125.05, 0 0" stroke="#c0c0c0" stroke-width="1" fill="none"></path></g><g stroke-linecap="round" transform="translate(357.50855398438944 445.2596789146687) rotate(179.8367897045279 96.79481911485755 21.304939193717473)"><path d="M0 0 L193.59 0 L193.59 42.61 L0 42.61" stroke="none" stroke-width="0" fill="#c0c0c0"></path><path d="M0 0 C71.08 0, 142.17 0, 193.59 0 M0 0 C53.28 0, 106.56 0, 193.59 0 M193.59 0 C193.59 11.61, 193.59 23.22, 193.59 42.61 M193.59 0 C193.59 9.76, 193.59 19.52, 193.59 42.61 M193.59 42.61 C118.01 42.61, 42.43 42.61, 0 42.61 M193.59 42.61 C153.35 42.61, 113.1 42.61, 0 42.61 M0 42.61 C0 31.18, 0 19.74, 0 0 M0 42.61 C0 29.5, 0 16.39, 0 0" stroke="#c0c0c0" stroke-width="1" fill="none"></path></g><g stroke-linecap="round" transform="translate(354.90793222461343 10.61881965303769) rotate(179.8367897045279 97.29332649313346 10.096410874209596)"><path d="M0 0 L194.59 0 L194.59 20.19 L0 20.19" stroke="none" stroke-width="0" fill="#c0c0c0"></path><path d="M0 0 C70.56 0, 141.12 0, 194.59 0 M0 0 C47.44 0, 94.87 0, 194.59 0 M194.59 0 C194.59 5.42, 194.59 10.84, 194.59 20.19 M194.59 0 C194.59 7.49, 194.59 14.99, 194.59 20.19 M194.59 20.19 C152.13 20.19, 109.68 20.19, 0 20.19 M194.59 20.19 C127.92 20.19, 61.26 20.19, 0 20.19 M0 20.19 C0 14.33, 0 8.46, 0 0 M0 20.19 C0 12.23, 0 4.27, 0 0" stroke="#c0c0c0" stroke-width="1" fill="none"></path></g><g stroke-linecap="round" transform="translate(232.34340337366393 400.6696940772374) rotate(0 55.26844431433483 10.86200639703668)"><path d="M0 0 L110.54 0 L110.54 21.72 L0 21.72" stroke="none" stroke-width="0" fill="#c0c0c0"></path><path d="M0 0 C33.09 0, 66.17 0, 110.54 0 M0 0 C39.15 0, 78.29 0, 110.54 0 M110.54 0 C110.54 5.01, 110.54 10.02, 110.54 21.72 M110.54 0 C110.54 7.03, 110.54 14.07, 110.54 21.72 M110.54 21.72 C87.07 21.72, 63.6 21.72, 0 21.72 M110.54 21.72 C74.01 21.72, 37.47 21.72, 0 21.72 M0 21.72 C0 14.5, 0 7.28, 0 0 M0 21.72 C0 13.07, 0 4.42, 0 0" stroke="#c0c0c0" stroke-width="1" fill="none"></path></g><g stroke-linecap="round" transform="translate(213.17515679065946 384.0572137052984) rotate(0 8.94518173873621 8.945181738736096)"><path d="M0 0 L17.89 0 L17.89 17.89 L0 17.89" stroke="none" stroke-width="0" fill="#c0c0c0"></path><path d="M0 0 C7.15 0, 14.31 0, 17.89 0 M0 0 C4.82 0, 9.64 0, 17.89 0 M17.89 0 C17.89 5.64, 17.89 11.28, 17.89 17.89 M17.89 0 C17.89 6.56, 17.89 13.11, 17.89 17.89 M17.89 17.89 C13.34 17.89, 8.78 17.89, 0 17.89 M17.89 17.89 C13.86 17.89, 9.83 17.89, 0 17.89 M0 17.89 C0 12.27, 0 6.65, 0 0 M0 17.89 C0 12.93, 0 7.96, 0 0" stroke="#c0c0c0" stroke-width="1" fill="none"></path></g><g stroke-linecap="round" transform="translate(195.28479331318613 366.8057917805927) rotate(0 8.94518173873621 8.945181738736096)"><path d="M0 0 L17.89 0 L17.89 17.89 L0 17.89" stroke="none" stroke-width="0" fill="#c0c0c0"></path><path d="M0 0 C6.33 0, 12.66 0, 17.89 0 M0 0 C5.31 0, 10.61 0, 17.89 0 M17.89 0 C17.89 3.93, 17.89 7.87, 17.89 17.89 M17.89 0 C17.89 3.84, 17.89 7.68, 17.89 17.89 M17.89 17.89 C11.82 17.89, 5.76 17.89, 0 17.89 M17.89 17.89 C13.09 17.89, 8.29 17.89, 0 17.89 M0 17.89 C0 13.11, 0 8.33, 0 0 M0 17.89 C0 14.12, 0 10.36, 0 0" stroke="#c0c0c0" stroke-width="1" fill="none"></path></g><g stroke-linecap="round" transform="translate(177.39442983571462 348.27648675035334) rotate(0 8.94518173873621 8.945181738736096)"><path d="M0 0 L17.89 0 L17.89 17.89 L0 17.89" stroke="none" stroke-width="0" fill="#c0c0c0"></path><path d="M0 0 C4.05 0, 8.1 0, 17.89 0 M0 0 C5.16 0, 10.33 0, 17.89 0 M17.89 0 C17.89 5.41, 17.89 10.83, 17.89 17.89 M17.89 0 C17.89 7.1, 17.89 14.21, 17.89 17.89 M17.89 17.89 C12.54 17.89, 7.19 17.89, 0 17.89 M17.89 17.89 C13.24 17.89, 8.6 17.89, 0 17.89 M0 17.89 C0 14.2, 0 10.5, 0 0 M0 17.89 C0 12.85, 0 7.81, 0 0" stroke="#c0c0c0" stroke-width="1" fill="none"></path></g><g stroke-linecap="round" transform="translate(119.25074853392834 288.5354515666504) rotate(90 48.55955801028267 10.223064844270084)"><path d="M0 0 L97.12 0 L97.12 20.45 L0 20.45" stroke="none" stroke-width="0" fill="#c0c0c0"></path><path d="M0 0 C24.26 0, 48.53 0, 97.12 0 M0 0 C30.68 0, 61.35 0, 97.12 0 M97.12 0 C97.12 6.05, 97.12 12.11, 97.12 20.45 M97.12 0 C97.12 5.85, 97.12 11.7, 97.12 20.45 M97.12 20.45 C67 20.45, 36.88 20.45, 0 20.45 M97.12 20.45 C75.14 20.45, 53.16 20.45, 0 20.45 M0 20.45 C0 14.87, 0 9.29, 0 0 M0 20.45 C0 13.45, 0 6.46, 0 0" stroke="#c0c0c0" stroke-width="1" fill="none"></path></g><g stroke-linecap="round" transform="translate(173.61062702322852 230.78374504723502) rotate(0 8.94518173873621 8.945181738736096)"><path d="M0 0 L17.89 0 L17.89 17.89 L0 17.89" stroke="none" stroke-width="0" fill="#c0c0c0"></path><path d="M0 0 C4.49 0, 8.98 0, 17.89 0 M0 0 C5.21 0, 10.42 0, 17.89 0 M17.89 0 C17.89 3.93, 17.89 7.86, 17.89 17.89 M17.89 0 C17.89 5.26, 17.89 10.52, 17.89 17.89 M17.89 17.89 C11.85 17.89, 5.82 17.89, 0 17.89 M17.89 17.89 C10.95 17.89, 4 17.89, 0 17.89 M0 17.89 C0 12.6, 0 7.31, 0 0 M0 17.89 C0 13.84, 0 9.8, 0 0" stroke="#c0c0c0" stroke-width="1" fill="none"></path></g><g stroke-linecap="round" transform="translate(178.42804473551405 190.94801576232612) rotate(0 8.94518173873621 16.829992389901804)"><path d="M0 0 L17.89 0 L17.89 33.66 L0 33.66" stroke="none" stroke-width="0" fill="#c0c0c0"></path><path d="M0 0 C3.69 0, 7.39 0, 17.89 0 M0 0 C4.62 0, 9.24 0, 17.89 0 M17.89 0 C17.89 7.32, 17.89 14.63, 17.89 33.66 M17.89 0 C17.89 8.58, 17.89 17.17, 17.89 33.66 M17.89 33.66 C13.43 33.66, 8.98 33.66, 0 33.66 M17.89 33.66 C14.28 33.66, 10.66 33.66, 0 33.66 M0 33.66 C0 20.38, 0 7.11, 0 0 M0 33.66 C0 26.09, 0 18.52, 0 0" stroke="#c0c0c0" stroke-width="1" fill="none"></path></g><g stroke-linecap="round" transform="translate(193.69164790875584 149.80105021117606) rotate(0 8.94518173873621 19.34875617378964)"><path d="M0 0 L17.89 0 L17.89 38.7 L0 38.7" stroke="none" stroke-width="0" fill="#c0c0c0"></path><path d="M0 0 C4.64 0, 9.28 0, 17.89 0 M0 0 C5.8 0, 11.59 0, 17.89 0 M17.89 0 C17.89 15.25, 17.89 30.51, 17.89 38.7 M17.89 0 C17.89 10.47, 17.89 20.94, 17.89 38.7 M17.89 38.7 C12.11 38.7, 6.33 38.7, 0 38.7 M17.89 38.7 C13.5 38.7, 9.11 38.7, 0 38.7 M0 38.7 C0 26.58, 0 14.47, 0 0 M0 38.7 C0 26.25, 0 13.8, 0 0" stroke="#c0c0c0" stroke-width="1" fill="none"></path></g><g stroke-linecap="round" transform="translate(160.12986734456172 165.37286635501937) rotate(0 9.999992370605469 17.5)"><path d="M0 0 L20 0 L20 35 L0 35" stroke="none" stroke-width="0" fill="#c0c0c0"></path><path d="M0 0 C6.21 0, 12.43 0, 20 0 M0 0 C5.42 0, 10.84 0, 20 0 M20 0 C20 7.83, 20 15.65, 20 35 M20 0 C20 9.55, 20 19.1, 20 35 M20 35 C13.34 35, 6.68 35, 0 35 M20 35 C14.32 35, 8.64 35, 0 35 M0 35 C0 22.89, 0 10.77, 0 0 M0 35 C0 25.95, 0 16.91, 0 0" stroke="#c0c0c0" stroke-width="1" fill="none"></path></g><g stroke-linecap="round" transform="translate(293.3590697555037 104.6802790629522) rotate(0 8.94518173873621 14.201722172846644)"><path d="M0 0 L17.89 0 L17.89 28.4 L0 28.4" stroke="none" stroke-width="0" fill="#c0c0c0"></path><path d="M0 0 C4.61 0, 9.22 0, 17.89 0 M0 0 C4.39 0, 8.78 0, 17.89 0 M17.89 0 C17.89 7.58, 17.89 15.15, 17.89 28.4 M17.89 0 C17.89 8.68, 17.89 17.37, 17.89 28.4 M17.89 28.4 C11.97 28.4, 6.05 28.4, 0 28.4 M17.89 28.4 C13.51 28.4, 9.14 28.4, 0 28.4 M0 28.4 C0 22.36, 0 16.32, 0 0 M0 28.4 C0 20.91, 0 13.42, 0 0" stroke="#c0c0c0" stroke-width="1" fill="none"></path></g><g stroke-linecap="round" transform="translate(267.47078850504477 172.13739274580007) rotate(0 8.510838254819191 19.413843979844387)"><path d="M0 0 L17.02 0 L17.02 38.83 L0 38.83" stroke="none" stroke-width="0" fill="#c0c0c0"></path><path d="M0 0 C5.14 0, 10.28 0, 17.02 0 M0 0 C6.53 0, 13.07 0, 17.02 0 M17.02 0 C17.02 8.05, 17.02 16.1, 17.02 38.83 M17.02 0 C17.02 11, 17.02 21.99, 17.02 38.83 M17.02 38.83 C13.39 38.83, 9.76 38.83, 0 38.83 M17.02 38.83 C10.42 38.83, 3.83 38.83, 0 38.83 M0 38.83 C0 25.12, 0 11.4, 0 0 M0 38.83 C0 26.65, 0 14.47, 0 0" stroke="#c0c0c0" stroke-width="1" fill="none"></path></g><g stroke-linecap="round" transform="translate(146.23228738955459 165.35579657491644) rotate(0 8.94518173873621 19.97454031218558)"><path d="M0 0 L17.89 0 L17.89 39.95 L0 39.95" stroke="none" stroke-width="0" fill="#c0c0c0"></path><path d="M0 0 C5.76 0, 11.51 0, 17.89 0 M0 0 C7 0, 13.99 0, 17.89 0 M17.89 0 C17.89 13.25, 17.89 26.51, 17.89 39.95 M17.89 0 C17.89 12.35, 17.89 24.69, 17.89 39.95 M17.89 39.95 C12.44 39.95, 7 39.95, 0 39.95 M17.89 39.95 C12.38 39.95, 6.86 39.95, 0 39.95 M0 39.95 C0 26, 0 12.05, 0 0 M0 39.95 C0 26.6, 0 13.24, 0 0" stroke="#c0c0c0" stroke-width="1" fill="none"></path></g><g stroke-linecap="round" transform="translate(295.3068653544815 178.0038103167126) rotate(270.44038727965255 8.94518173873621 16.829992389901804)"><path d="M0 0 L17.89 0 L17.89 33.66 L0 33.66" stroke="none" stroke-width="0" fill="#c0c0c0"></path><path d="M0 0 C6.04 0, 12.08 0, 17.89 0 M0 0 C4.52 0, 9.03 0, 17.89 0 M17.89 0 C17.89 7.5, 17.89 14.99, 17.89 33.66 M17.89 0 C17.89 10.29, 17.89 20.58, 17.89 33.66 M17.89 33.66 C12.36 33.66, 6.83 33.66, 0 33.66 M17.89 33.66 C12.65 33.66, 7.41 33.66, 0 33.66 M0 33.66 C0 20.52, 0 7.37, 0 0 M0 33.66 C0 21.33, 0 9, 0 0" stroke="#c0c0c0" stroke-width="1" fill="none"></path></g><g stroke-linecap="round" transform="translate(207.4878911456708 131.2817964691685) rotate(0 8.94518173873621 8.945181738736096)"><path d="M0 0 L17.89 0 L17.89 17.89 L0 17.89" stroke="none" stroke-width="0" fill="#c0c0c0"></path><path d="M0 0 C6.73 0, 13.46 0, 17.89 0 M0 0 C3.9 0, 7.81 0, 17.89 0 M17.89 0 C17.89 4.18, 17.89 8.35, 17.89 17.89 M17.89 0 C17.89 4.78, 17.89 9.56, 17.89 17.89 M17.89 17.89 C12.47 17.89, 7.05 17.89, 0 17.89 M17.89 17.89 C12.66 17.89, 7.42 17.89, 0 17.89 M0 17.89 C0 13.83, 0 9.76, 0 0 M0 17.89 C0 11.6, 0 5.32, 0 0" stroke="#c0c0c0" stroke-width="1" fill="none"></path></g><g stroke-linecap="round" transform="translate(247.73906745990644 150.53024391813233) rotate(0 9.999992370605469 17.5)"><path d="M0 0 L20 0 L20 35 L0 35" stroke="none" stroke-width="0" fill="#c0c0c0"></path><path d="M0 0 C4.13 0, 8.27 0, 20 0 M0 0 C4.93 0, 9.86 0, 20 0 M20 0 C20 7.51, 20 15.01, 20 35 M20 0 C20 10.24, 20 20.48, 20 35 M20 35 C15.12 35, 10.23 35, 0 35 M20 35 C13.6 35, 7.21 35, 0 35 M0 35 C0 27.18, 0 19.36, 0 0 M0 35 C0 22.86, 0 10.72, 0 0" stroke="#c0c0c0" stroke-width="1" fill="none"></path></g><g stroke-linecap="round" transform="translate(313.66640640402693 166.3592194269131) rotate(0 8.94518173873621 8.945181738736096)"><path d="M0 0 L17.89 0 L17.89 17.89 L0 17.89" stroke="none" stroke-width="0" fill="#c0c0c0"></path><path d="M0 0 C7.12 0, 14.23 0, 17.89 0 M0 0 C6.76 0, 13.53 0, 17.89 0 M17.89 0 C17.89 4.9, 17.89 9.8, 17.89 17.89 M17.89 0 C17.89 6.43, 17.89 12.86, 17.89 17.89 M17.89 17.89 C11.38 17.89, 4.87 17.89, 0 17.89 M17.89 17.89 C11.9 17.89, 5.92 17.89, 0 17.89 M0 17.89 C0 12, 0 6.1, 0 0 M0 17.89 C0 14.28, 0 10.68, 0 0" stroke="#c0c0c0" stroke-width="1" fill="none"></path></g><g stroke-linecap="round" transform="translate(329.97636733975287 131.67691580579185) rotate(0 8.94518173873621 16.829992389901804)"><path d="M0 0 L17.89 0 L17.89 33.66 L0 33.66" stroke="none" stroke-width="0" fill="#c0c0c0"></path><path d="M0 0 C4.08 0, 8.16 0, 17.89 0 M0 0 C5.71 0, 11.42 0, 17.89 0 M17.89 0 C17.89 10.37, 17.89 20.73, 17.89 33.66 M17.89 0 C17.89 8.03, 17.89 16.05, 17.89 33.66 M17.89 33.66 C11.87 33.66, 5.85 33.66, 0 33.66 M17.89 33.66 C13.17 33.66, 8.45 33.66, 0 33.66 M0 33.66 C0 22.6, 0 11.53, 0 0 M0 33.66 C0 25.02, 0 16.39, 0 0" stroke="#c0c0c0" stroke-width="1" fill="none"></path></g><g stroke-linecap="round" transform="translate(345.7098417137695 131.05833783620096) rotate(0 8.94518173873621 8.945181738736096)"><path d="M0 0 L17.89 0 L17.89 17.89 L0 17.89" stroke="none" stroke-width="0" fill="#c0c0c0"></path><path d="M0 0 C5.98 0, 11.97 0, 17.89 0 M0 0 C5.75 0, 11.51 0, 17.89 0 M17.89 0 C17.89 7.11, 17.89 14.21, 17.89 17.89 M17.89 0 C17.89 4.07, 17.89 8.15, 17.89 17.89 M17.89 17.89 C13.57 17.89, 9.24 17.89, 0 17.89 M17.89 17.89 C11.3 17.89, 4.7 17.89, 0 17.89 M0 17.89 C0 13.51, 0 9.12, 0 0 M0 17.89 C0 13.67, 0 9.46, 0 0" stroke="#c0c0c0" stroke-width="1" fill="none"></path></g><g stroke-linecap="round" transform="translate(345.98726556669226 382.55349699147223) rotate(0 8.94518173873621 8.945181738736096)"><path d="M0 0 L17.89 0 L17.89 17.89 L0 17.89" stroke="none" stroke-width="0" fill="#c0c0c0"></path><path d="M0 0 C3.97 0, 7.93 0, 17.89 0 M0 0 C6.6 0, 13.2 0, 17.89 0 M17.89 0 C17.89 6.79, 17.89 13.58, 17.89 17.89 M17.89 0 C17.89 3.93, 17.89 7.85, 17.89 17.89 M17.89 17.89 C12.04 17.89, 6.19 17.89, 0 17.89 M17.89 17.89 C10.96 17.89, 4.02 17.89, 0 17.89 M0 17.89 C0 13.53, 0 9.17, 0 0 M0 17.89 C0 14.22, 0 10.54, 0 0" stroke="#c0c0c0" stroke-width="1" fill="none"></path></g><g stroke-linecap="round" transform="translate(360.8657579218225 366.7450988641431) rotate(0 8.94518173873621 8.945181738736096)"><path d="M0 0 L17.89 0 L17.89 17.89 L0 17.89" stroke="none" stroke-width="0" fill="#c0c0c0"></path><path d="M0 0 C4.21 0, 8.41 0, 17.89 0 M0 0 C6.61 0, 13.21 0, 17.89 0 M17.89 0 C17.89 6.28, 17.89 12.56, 17.89 17.89 M17.89 0 C17.89 5, 17.89 10, 17.89 17.89 M17.89 17.89 C12.58 17.89, 7.27 17.89, 0 17.89 M17.89 17.89 C12.29 17.89, 6.68 17.89, 0 17.89 M0 17.89 C0 13.38, 0 8.88, 0 0 M0 17.89 C0 13.54, 0 9.18, 0 0" stroke="#c0c0c0" stroke-width="1" fill="none"></path></g><g stroke-linecap="round" transform="translate(372.9545329603716 346.2871718758354) rotate(0 8.94518173873621 8.945181738736096)"><path d="M0 0 L17.89 0 L17.89 17.89 L0 17.89" stroke="none" stroke-width="0" fill="#c0c0c0"></path><path d="M0 0 C3.67 0, 7.33 0, 17.89 0 M0 0 C5.43 0, 10.86 0, 17.89 0 M17.89 0 C17.89 3.7, 17.89 7.4, 17.89 17.89 M17.89 0 C17.89 3.97, 17.89 7.94, 17.89 17.89 M17.89 17.89 C14.26 17.89, 10.62 17.89, 0 17.89 M17.89 17.89 C13.12 17.89, 8.34 17.89, 0 17.89 M0 17.89 C0 11.1, 0 4.32, 0 0 M0 17.89 C0 11.69, 0 5.5, 0 0" stroke="#c0c0c0" stroke-width="1" fill="none"></path></g><g stroke-linecap="round" transform="translate(358.9125654242098 291.53970686903926) rotate(90 40.19040606051976 11.617923502564508)"><path d="M0 0 L80.38 0 L80.38 23.24 L0 23.24" stroke="none" stroke-width="0" fill="#c0c0c0"></path><path d="M0 0 C18.94 0, 37.89 0, 80.38 0 M0 0 C24.77 0, 49.53 0, 80.38 0 M80.38 0 C80.38 9.28, 80.38 18.56, 80.38 23.24 M80.38 0 C80.38 9.29, 80.38 18.59, 80.38 23.24 M80.38 23.24 C59.04 23.24, 37.71 23.24, 0 23.24 M80.38 23.24 C56.2 23.24, 32.02 23.24, 0 23.24 M0 23.24 C0 17.86, 0 12.48, 0 0 M0 23.24 C0 15.19, 0 7.14, 0 0" stroke="#c0c0c0" stroke-width="1" fill="none"></path></g><g stroke-linecap="round" transform="translate(363.48408687362826 225.43838963157668) rotate(90 23.995062458651773 10.223064844270198)"><path d="M0 0 L47.99 0 L47.99 20.45 L0 20.45" stroke="none" stroke-width="0" fill="#c0c0c0"></path><path d="M0 0 C10.7 0, 21.39 0, 47.99 0 M0 0 C18.85 0, 37.71 0, 47.99 0 M47.99 0 C47.99 7.96, 47.99 15.93, 47.99 20.45 M47.99 0 C47.99 5.28, 47.99 10.57, 47.99 20.45 M47.99 20.45 C28.83 20.45, 9.68 20.45, 0 20.45 M47.99 20.45 C34.49 20.45, 20.99 20.45, 0 20.45 M0 20.45 C0 12.43, 0 4.41, 0 0 M0 20.45 C0 15.8, 0 11.15, 0 0" stroke="#c0c0c0" stroke-width="1" fill="none"></path></g><g stroke-linecap="round" transform="translate(370.8816568530583 186.1217627056808) rotate(0 8.590269929125498 11.784476215621112)"><path d="M0 0 L17.18 0 L17.18 23.57 L0 23.57" stroke="none" stroke-width="0" fill="#c0c0c0"></path><path d="M0 0 C6.01 0, 12.03 0, 17.18 0 M0 0 C5.24 0, 10.48 0, 17.18 0 M17.18 0 C17.18 8.68, 17.18 17.36, 17.18 23.57 M17.18 0 C17.18 7.8, 17.18 15.61, 17.18 23.57 M17.18 23.57 C12.94 23.57, 8.7 23.57, 0 23.57 M17.18 23.57 C11.28 23.57, 5.37 23.57, 0 23.57 M0 23.57 C0 18.85, 0 14.13, 0 0 M0 23.57 C0 16.83, 0 10.09, 0 0" stroke="#c0c0c0" stroke-width="1" fill="none"></path></g><g stroke-linecap="round" transform="translate(363.6554752384127 110.09110573809289) rotate(0 8.94518173873621 8.945181738736096)"><path d="M0 0 L17.89 0 L17.89 17.89 L0 17.89" stroke="none" stroke-width="0" fill="#c0c0c0"></path><path d="M0 0 C5.63 0, 11.26 0, 17.89 0 M0 0 C4.17 0, 8.34 0, 17.89 0 M17.89 0 C17.89 7.04, 17.89 14.07, 17.89 17.89 M17.89 0 C17.89 6.12, 17.89 12.24, 17.89 17.89 M17.89 17.89 C12.77 17.89, 7.65 17.89, 0 17.89 M17.89 17.89 C12.01 17.89, 6.13 17.89, 0 17.89 M0 17.89 C0 11.83, 0 5.77, 0 0 M0 17.89 C0 11.12, 0 4.35, 0 0" stroke="#c0c0c0" stroke-width="1" fill="none"></path></g><g stroke-linecap="round" transform="translate(386.56859645672284 123.06760753607296) rotate(0 8.94518173873621 17.400210963373866)"><path d="M0 0 L17.89 0 L17.89 34.8 L0 34.8" stroke="none" stroke-width="0" fill="#c0c0c0"></path><path d="M0 0 C6.51 0, 13.01 0, 17.89 0 M0 0 C5.72 0, 11.44 0, 17.89 0 M17.89 0 C17.89 12.62, 17.89 25.24, 17.89 34.8 M17.89 0 C17.89 11.91, 17.89 23.83, 17.89 34.8 M17.89 34.8 C13.68 34.8, 9.46 34.8, 0 34.8 M17.89 34.8 C11.74 34.8, 5.59 34.8, 0 34.8 M0 34.8 C0 23.46, 0 12.13, 0 0 M0 34.8 C0 27.58, 0 20.36, 0 0" stroke="#c0c0c0" stroke-width="1" fill="none"></path></g><g stroke-linecap="round" transform="translate(256.9613208042165 60.54383356436006) rotate(0 8.527420025243828 9.060383776822277)"><path d="M0 0 L17.05 0 L17.05 18.12 L0 18.12" stroke="none" stroke-width="0" fill="#c0c0c0"></path><path d="M0 0 C5.39 0, 10.78 0, 17.05 0 M0 0 C5.18 0, 10.37 0, 17.05 0 M17.05 0 C17.05 5.67, 17.05 11.33, 17.05 18.12 M17.05 0 C17.05 5.58, 17.05 11.16, 17.05 18.12 M17.05 18.12 C10.25 18.12, 3.44 18.12, 0 18.12 M17.05 18.12 C10.46 18.12, 3.86 18.12, 0 18.12 M0 18.12 C0 13.4, 0 8.68, 0 0 M0 18.12 C0 11.96, 0 5.79, 0 0" stroke="#c0c0c0" stroke-width="1" fill="none"></path></g><g stroke-linecap="round" transform="translate(382.986575571761 90.72448382546258) rotate(0 8.527420025243828 9.060383776822277)"><path d="M0 0 L17.05 0 L17.05 18.12 L0 18.12" stroke="none" stroke-width="0" fill="#c0c0c0"></path><path d="M0 0 C4.09 0, 8.18 0, 17.05 0 M0 0 C4.84 0, 9.68 0, 17.05 0 M17.05 0 C17.05 6.96, 17.05 13.91, 17.05 18.12 M17.05 0 C17.05 4.09, 17.05 8.17, 17.05 18.12 M17.05 18.12 C12.02 18.12, 6.98 18.12, 0 18.12 M17.05 18.12 C11.97 18.12, 6.88 18.12, 0 18.12 M0 18.12 C0 11.63, 0 5.13, 0 0 M0 18.12 C0 13.5, 0 8.88, 0 0" stroke="#c0c0c0" stroke-width="1" fill="none"></path></g><g stroke-linecap="round" transform="translate(238.64894048298265 61.38787227677585) rotate(0 7.911038401999576 16.765154067371782)"><path d="M0 0 L15.82 0 L15.82 33.53 L0 33.53" stroke="none" stroke-width="0" fill="#c0c0c0"></path><path d="M0 0 C5.13 0, 10.27 0, 15.82 0 M0 0 C3.49 0, 6.97 0, 15.82 0 M15.82 0 C15.82 7.84, 15.82 15.68, 15.82 33.53 M15.82 0 C15.82 12.21, 15.82 24.43, 15.82 33.53 M15.82 33.53 C11.32 33.53, 6.82 33.53, 0 33.53 M15.82 33.53 C10.16 33.53, 4.5 33.53, 0 33.53 M0 33.53 C0 23.27, 0 13.01, 0 0 M0 33.53 C0 23.08, 0 12.63, 0 0" stroke="#c0c0c0" stroke-width="1" fill="none"></path></g><g stroke-linecap="round" transform="translate(378.7564609396304 160.23315516945104) rotate(0 8.527420025243828 11.722222348901937)"><path d="M0 0 L17.05 0 L17.05 23.44 L0 23.44" stroke="none" stroke-width="0" fill="#c0c0c0"></path><path d="M0 0 C6.57 0, 13.14 0, 17.05 0 M0 0 C5 0, 9.99 0, 17.05 0 M17.05 0 C17.05 4.69, 17.05 9.39, 17.05 23.44 M17.05 0 C17.05 8.04, 17.05 16.08, 17.05 23.44 M17.05 23.44 C10.91 23.44, 4.77 23.44, 0 23.44 M17.05 23.44 C13.35 23.44, 9.64 23.44, 0 23.44 M0 23.44 C0 17.65, 0 11.85, 0 0 M0 23.44 C0 16.28, 0 9.12, 0 0" stroke="#c0c0c0" stroke-width="1" fill="none"></path></g><g stroke-linecap="round" transform="translate(240.89851264020217 111.72901707025812) rotate(0 8.527420025243828 18.690985642031706)"><path d="M0 0 L17.05 0 L17.05 37.38 L0 37.38" stroke="none" stroke-width="0" fill="#c0c0c0"></path><path d="M0 0 C4.37 0, 8.74 0, 17.05 0 M0 0 C3.7 0, 7.39 0, 17.05 0 M17.05 0 C17.05 9.28, 17.05 18.56, 17.05 37.38 M17.05 0 C17.05 10.94, 17.05 21.89, 17.05 37.38 M17.05 37.38 C12.8 37.38, 8.54 37.38, 0 37.38 M17.05 37.38 C11.85 37.38, 6.65 37.38, 0 37.38 M0 37.38 C0 26.84, 0 16.29, 0 0 M0 37.38 C0 29.73, 0 22.09, 0 0" stroke="#c0c0c0" stroke-width="1" fill="none"></path></g><g stroke-linecap="round" transform="translate(223.49634145908112 112.1259073477504) rotate(0 8.527420025243828 9.060383776822277)"><path d="M0 0 L17.05 0 L17.05 18.12 L0 18.12" stroke="none" stroke-width="0" fill="#c0c0c0"></path><path d="M0 0 C4.87 0, 9.75 0, 17.05 0 M0 0 C4.63 0, 9.26 0, 17.05 0 M17.05 0 C17.05 6.13, 17.05 12.25, 17.05 18.12 M17.05 0 C17.05 3.71, 17.05 7.42, 17.05 18.12 M17.05 18.12 C12.71 18.12, 8.37 18.12, 0 18.12 M17.05 18.12 C12.41 18.12, 7.77 18.12, 0 18.12 M0 18.12 C0 13.4, 0 8.68, 0 0 M0 18.12 C0 13.52, 0 8.93, 0 0" stroke="#c0c0c0" stroke-width="1" fill="none"></path></g><g stroke-linecap="round" transform="translate(315.9680044688903 79.06944533765454) rotate(179.96558705728302 19.04250943524039 6.5707251934242095)"><path d="M0 0 L38.09 0 L38.09 13.14 L0 13.14" stroke="none" stroke-width="0" fill="#c0c0c0"></path><path d="M0 0 C14.47 0, 28.94 0, 38.09 0 M0 0 C9.76 0, 19.53 0, 38.09 0 M38.09 0 C38.09 2.91, 38.09 5.82, 38.09 13.14 M38.09 0 C38.09 4.82, 38.09 9.65, 38.09 13.14 M38.09 13.14 C24.49 13.14, 10.9 13.14, 0 13.14 M38.09 13.14 C24.74 13.14, 11.4 13.14, 0 13.14 M0 13.14 C0 10.22, 0 7.29, 0 0 M0 13.14 C0 8.28, 0 3.42, 0 0" stroke="#c0c0c0" stroke-width="1" fill="none"></path></g><g stroke-linecap="round" transform="translate(332.6390004323821 93.63675461504931) rotate(269.66179085787775 15.171160471747953 6.342235491678139)"><path d="M0 0 L30.34 0 L30.34 12.68 L0 12.68" stroke="none" stroke-width="0" fill="#c0c0c0"></path><path d="M0 0 C10.57 0, 21.13 0, 30.34 0 M0 0 C11.39 0, 22.79 0, 30.34 0 M30.34 0 C30.34 3.45, 30.34 6.9, 30.34 12.68 M30.34 0 C30.34 3.48, 30.34 6.95, 30.34 12.68 M30.34 12.68 C23.94 12.68, 17.53 12.68, 0 12.68 M30.34 12.68 C21.03 12.68, 11.72 12.68, 0 12.68 M0 12.68 C0 8.57, 0 4.46, 0 0 M0 12.68 C0 7.94, 0 3.21, 0 0" stroke="#c0c0c0" stroke-width="1" fill="none"></path></g><g stroke-linecap="round" transform="translate(239.12283155022578 255.41160084727449) rotate(0 12.5 26.66666666666663)"><path d="M25 26.67 C25 28.21, 24.94 29.78, 24.81 31.3 C24.68 32.82, 24.49 34.34, 24.25 35.79 C24 37.24, 23.69 38.66, 23.33 40 C22.96 41.34, 22.54 42.63, 22.08 43.81 C21.61 44.99, 21.09 46.1, 20.53 47.09 C19.98 48.09, 19.38 48.99, 18.75 49.76 C18.12 50.53, 17.46 51.2, 16.78 51.73 C16.1 52.25, 15.38 52.66, 14.67 52.93 C13.96 53.2, 13.22 53.33, 12.5 53.33 C11.78 53.33, 11.04 53.2, 10.33 52.93 C9.62 52.66, 8.9 52.25, 8.22 51.73 C7.54 51.2, 6.88 50.53, 6.25 49.76 C5.62 48.99, 5.02 48.09, 4.47 47.09 C3.91 46.1, 3.39 44.99, 2.92 43.81 C2.46 42.63, 2.04 41.34, 1.67 40 C1.31 38.66, 1 37.24, 0.75 35.79 C0.51 34.34, 0.32 32.82, 0.19 31.3 C0.06 29.78, 0 28.21, 0 26.67 C0 25.12, 0.06 23.56, 0.19 22.04 C0.32 20.52, 0.51 19, 0.75 17.55 C1 16.1, 1.31 14.67, 1.67 13.33 C2.04 12, 2.46 10.71, 2.92 9.53 C3.39 8.34, 3.91 7.23, 4.47 6.24 C5.02 5.25, 5.62 4.34, 6.25 3.57 C6.88 2.8, 7.54 2.14, 8.22 1.61 C8.9 1.08, 9.62 0.67, 10.33 0.41 C11.04 0.14, 11.78 0, 12.5 0 C13.22 0, 13.96 0.14, 14.67 0.41 C15.38 0.67, 16.1 1.08, 16.78 1.61 C17.46 2.14, 18.12 2.8, 18.75 3.57 C19.38 4.34, 19.98 5.25, 20.53 6.24 C21.09 7.23, 21.61 8.34, 22.08 9.53 C22.54 10.71, 22.96 12, 23.33 13.33 C23.69 14.67, 24 16.1, 24.25 17.55 C24.49 19, 24.68 20.52, 24.81 22.04 C24.94 23.56, 24.97 25.89, 25 26.67 C25.03 27.44, 25.03 25.89, 25 26.67" stroke="none" stroke-width="0" fill="#c0c0c0"></path><path d="M25 26.67 C25 28.21, 24.94 29.78, 24.81 31.3 C24.68 32.82, 24.49 34.34, 24.25 35.79 C24 37.24, 23.69 38.66, 23.33 40 C22.96 41.34, 22.54 42.63, 22.08 43.81 C21.61 44.99, 21.09 46.1, 20.53 47.09 C19.98 48.09, 19.38 48.99, 18.75 49.76 C18.12 50.53, 17.46 51.2, 16.78 51.73 C16.1 52.25, 15.38 52.66, 14.67 52.93 C13.96 53.2, 13.22 53.33, 12.5 53.33 C11.78 53.33, 11.04 53.2, 10.33 52.93 C9.62 52.66, 8.9 52.25, 8.22 51.73 C7.54 51.2, 6.88 50.53, 6.25 49.76 C5.62 48.99, 5.02 48.09, 4.47 47.09 C3.91 46.1, 3.39 44.99, 2.92 43.81 C2.46 42.63, 2.04 41.34, 1.67 40 C1.31 38.66, 1 37.24, 0.75 35.79 C0.51 34.34, 0.32 32.82, 0.19 31.3 C0.06 29.78, 0 28.21, 0 26.67 C0 25.12, 0.06 23.56, 0.19 22.04 C0.32 20.52, 0.51 19, 0.75 17.55 C1 16.1, 1.31 14.67, 1.67 13.33 C2.04 12, 2.46 10.71, 2.92 9.53 C3.39 8.34, 3.91 7.23, 4.47 6.24 C5.02 5.25, 5.62 4.34, 6.25 3.57 C6.88 2.8, 7.54 2.14, 8.22 1.61 C8.9 1.08, 9.62 0.67, 10.33 0.41 C11.04 0.14, 11.78 0, 12.5 0 C13.22 0, 13.96 0.14, 14.67 0.41 C15.38 0.67, 16.1 1.08, 16.78 1.61 C17.46 2.14, 18.12 2.8, 18.75 3.57 C19.38 4.34, 19.98 5.25, 20.53 6.24 C21.09 7.23, 21.61 8.34, 22.08 9.53 C22.54 10.71, 22.96 12, 23.33 13.33 C23.69 14.67, 24 16.1, 24.25 17.55 C24.49 19, 24.68 20.52, 24.81 22.04 C24.94 23.56, 24.97 25.89, 25 26.67 C25.03 27.44, 25.03 25.89, 25 26.67" stroke="#c0c0c0" stroke-width="1" fill="none"></path></g><g stroke-linecap="round" transform="translate(307.28043580256326 255.48005728407202) rotate(0 12.5 26.66666666666663)"><path d="M25 26.67 C25 28.21, 24.94 29.78, 24.81 31.3 C24.68 32.82, 24.49 34.34, 24.25 35.79 C24 37.24, 23.69 38.66, 23.33 40 C22.96 41.34, 22.54 42.63, 22.08 43.81 C21.61 44.99, 21.09 46.1, 20.53 47.09 C19.98 48.09, 19.38 48.99, 18.75 49.76 C18.12 50.53, 17.46 51.2, 16.78 51.73 C16.1 52.25, 15.38 52.66, 14.67 52.93 C13.96 53.2, 13.22 53.33, 12.5 53.33 C11.78 53.33, 11.04 53.2, 10.33 52.93 C9.62 52.66, 8.9 52.25, 8.22 51.73 C7.54 51.2, 6.88 50.53, 6.25 49.76 C5.62 48.99, 5.02 48.09, 4.47 47.09 C3.91 46.1, 3.39 44.99, 2.92 43.81 C2.46 42.63, 2.04 41.34, 1.67 40 C1.31 38.66, 1 37.24, 0.75 35.79 C0.51 34.34, 0.32 32.82, 0.19 31.3 C0.06 29.78, 0 28.21, 0 26.67 C0 25.12, 0.06 23.56, 0.19 22.04 C0.32 20.52, 0.51 19, 0.75 17.55 C1 16.1, 1.31 14.67, 1.67 13.33 C2.04 12, 2.46 10.71, 2.92 9.53 C3.39 8.34, 3.91 7.23, 4.47 6.24 C5.02 5.25, 5.62 4.34, 6.25 3.57 C6.88 2.8, 7.54 2.14, 8.22 1.61 C8.9 1.08, 9.62 0.67, 10.33 0.41 C11.04 0.14, 11.78 0, 12.5 0 C13.22 0, 13.96 0.14, 14.67 0.41 C15.38 0.67, 16.1 1.08, 16.78 1.61 C17.46 2.14, 18.12 2.8, 18.75 3.57 C19.38 4.34, 19.98 5.25, 20.53 6.24 C21.09 7.23, 21.61 8.34, 22.08 9.53 C22.54 10.71, 22.96 12, 23.33 13.33 C23.69 14.67, 24 16.1, 24.25 17.55 C24.49 19, 24.68 20.52, 24.81 22.04 C24.94 23.56, 24.97 25.89, 25 26.67 C25.03 27.44, 25.03 25.89, 25 26.67" stroke="none" stroke-width="0" fill="#c0c0c0"></path><path d="M25 26.67 C25 28.21, 24.94 29.78, 24.81 31.3 C24.68 32.82, 24.49 34.34, 24.25 35.79 C24 37.24, 23.69 38.66, 23.33 40 C22.96 41.34, 22.54 42.63, 22.08 43.81 C21.61 44.99, 21.09 46.1, 20.53 47.09 C19.98 48.09, 19.38 48.99, 18.75 49.76 C18.12 50.53, 17.46 51.2, 16.78 51.73 C16.1 52.25, 15.38 52.66, 14.67 52.93 C13.96 53.2, 13.22 53.33, 12.5 53.33 C11.78 53.33, 11.04 53.2, 10.33 52.93 C9.62 52.66, 8.9 52.25, 8.22 51.73 C7.54 51.2, 6.88 50.53, 6.25 49.76 C5.62 48.99, 5.02 48.09, 4.47 47.09 C3.91 46.1, 3.39 44.99, 2.92 43.81 C2.46 42.63, 2.04 41.34, 1.67 40 C1.31 38.66, 1 37.24, 0.75 35.79 C0.51 34.34, 0.32 32.82, 0.19 31.3 C0.06 29.78, 0 28.21, 0 26.67 C0 25.12, 0.06 23.56, 0.19 22.04 C0.32 20.52, 0.51 19, 0.75 17.55 C1 16.1, 1.31 14.67, 1.67 13.33 C2.04 12, 2.46 10.71, 2.92 9.53 C3.39 8.34, 3.91 7.23, 4.47 6.24 C5.02 5.25, 5.62 4.34, 6.25 3.57 C6.88 2.8, 7.54 2.14, 8.22 1.61 C8.9 1.08, 9.62 0.67, 10.33 0.41 C11.04 0.14, 11.78 0, 12.5 0 C13.22 0, 13.96 0.14, 14.67 0.41 C15.38 0.67, 16.1 1.08, 16.78 1.61 C17.46 2.14, 18.12 2.8, 18.75 3.57 C19.38 4.34, 19.98 5.25, 20.53 6.24 C21.09 7.23, 21.61 8.34, 22.08 9.53 C22.54 10.71, 22.96 12, 23.33 13.33 C23.69 14.67, 24 16.1, 24.25 17.55 C24.49 19, 24.68 20.52, 24.81 22.04 C24.94 23.56, 24.97 25.89, 25 26.67 C25.03 27.44, 25.03 25.89, 25 26.67" stroke="#c0c0c0" stroke-width="1" fill="none"></path></g></svg>